<svg width="100" xmlns="http://www.w3.org/2000/svg" height="100"
  id="screenshot-2e9f1cce-513f-80d0-8006-28342c043a5d" viewBox="0 0 100 100"
  xmlns:xlink="http://www.w3.org/1999/xlink" fill="none" version="1.1">
  <g id="shape-2e9f1cce-513f-80d0-8006-28342c043a5d" rx="0" ry="0">
    <g id="shape-2e9f1cce-513f-80d0-8006-28333fbe9c3c">
      <g class="fills" id="fills-2e9f1cce-513f-80d0-8006-28333fbe9c3c">
        <rect rx="0" ry="0" x="0" y="5.684341886080802e-14"
          transform="matrix(1.000000, 0.000000, 0.000000, 1.000000, 0.000000, 0.000000)" width="100"
          height="99.99999999999994" style="fill: rgb(0, 0, 0); fill-opacity: 1;" />
      </g>
    </g>
    <g id="shape-2e9f1cce-513f-80d0-8006-28336c47935a" class="size-6" rx="0" ry="0"
      style="fill: rgb(0, 0, 0);">
      <g id="shape-2e9f1cce-513f-80d0-8006-28336c47935c" style="display: none;">
        <g class="fills" id="fills-2e9f1cce-513f-80d0-8006-28336c47935c">
          <rect width="81" height="81" x="9.5"
            transform="matrix(1.000000, 0.000000, 0.000000, 1.000000, 0.000000, 0.000000)"
            style="fill: none;" ry="0" fill="none" rx="0" y="9.5" />
        </g>
      </g>
      <g id="shape-2e9f1cce-513f-80d0-8006-28336c483913">
        <g class="fills" id="fills-2e9f1cce-513f-80d0-8006-28336c483913">
          <path
            d="M76.838,15.072C77.472,15.551,77.844,16.299,77.844,17.094L77.844,64.523C77.843,69.043,74.846,73.015,70.500,74.256L66.045,75.529C63.070,76.421,59.846,75.644,57.604,73.495C55.363,71.346,54.451,68.156,55.218,65.147C55.986,62.138,58.313,59.774,61.310,58.961L69.109,56.733C71.282,56.112,72.781,54.126,72.781,51.866L72.781,33.105L42.406,41.785L42.406,74.648C42.405,79.168,39.408,83.140,35.062,84.381L30.607,85.654C27.629,86.558,24.394,85.787,22.145,83.634C19.896,81.482,18.983,78.284,19.756,75.269C20.529,72.254,22.868,69.890,25.875,69.086L33.672,66.858C35.845,66.237,37.343,64.251,37.344,61.991L37.344,27.219C37.344,26.089,38.093,25.096,39.180,24.785L74.617,14.660C75.381,14.441,76.203,14.594,76.838,15.072ZZ"
            fill-rule="evenodd" clip-rule="evenodd" style="fill: rgb(255, 255, 255);" />
        </g>
      </g>
    </g>
  </g>
</svg>
